<?xml version="1.0" standalone="no"?>
<!DOCTYPE svg PUBLIC "-//W3C//DTD SVG 20010904//EN" "http://www.w3.org/TR/2001/REC-SVG-20010904/DTD/svg10.dtd">
<!-- Created using Krita: http://krita.org -->
<svg xmlns="http://www.w3.org/2000/svg" 
    xmlns:xlink="http://www.w3.org/1999/xlink"
    xmlns:krita="http://krita.org/namespaces/svg/krita"
    xmlns:sodipodi="http://sodipodi.sourceforge.net/DTD/sodipodi-0.dtd"
    width="259.2pt"
    height="307.2pt"
    viewBox="0 0 259.2 307.2">
<defs/>
<path id="shape0" transform="matrix(0.9999999529 0 0 0.99999996026 24.948148694 17.47926488)" fill="none" stroke="#c73434" stroke-width="3.6303149606" stroke-linecap="square" stroke-linejoin="bevel" d="M55.939 67.8546C53.0381 57.0908 55.2872 53.0602 58.0182 44.4375C52.3235 41.7722 50.7384 39.4545 51.5384 34.7476C37.0032 29.1048 48.9132 22.9292 58.1037 15.0859C63.5287 10.4562 71.4507 7.40507 76.0052 11.3561C91.0153 -5.62538 111.645 -1.64841 123.486 10.7536C127.839 9.37015 141.368 7.38101 146.571 12.4071C155.231 17.7718 163.575 34.1279 146.372 33.2864C151.894 42.2881 146.296 41.9577 142.071 45.1809C143.528 51.2394 144.455 60.609 139.493 68.1623C181.567 76.1998 202.648 102.388 193.682 132.044C208.828 148.256 195.304 167.969 183.713 167.265C154.53 163.575 180.737 120.277 160.286 112.151C160.111 148.683 158.666 176.234 147.056 197.758C146.315 222.422 136.266 232.062 128.926 244.618C141.137 248.727 144.569 257.851 132.985 260.383C125.792 261.955 96.089 263.502 91.6565 247.963C92.4223 238.171 110.098 226.406 104.652 218.535C99.2536 211.628 94.219 208.953 86.9568 206.038C86.6394 218.602 99.6318 234.042 85.789 247.745C78.0853 252.727 54.1218 253.158 46.2263 245.72C40.7273 239.916 50.102 231.023 59.5706 223.264C51.813 211.937 50.4656 204.82 51.0399 197.668C52.6958 184.466 56.2968 181.727 58.6306 176.161C49.1704 164.698 42.8181 135.792 42.9081 110.229C33.1132 128.263 32.3303 164.2 13.7986 163.061C-5.59524 154.135 -1.39715 131.693 7.31877 129.211C8.3036 80.1128 22.6547 76.143 55.939 67.8546Z"/>
</svg>
