<?xml version="1.0" standalone="no"?>
<!DOCTYPE svg PUBLIC "-//W3C//DTD SVG 20010904//EN" "http://www.w3.org/TR/2001/REC-SVG-20010904/DTD/svg10.dtd">
<!-- Created using Krita: http://krita.org -->
<svg xmlns="http://www.w3.org/2000/svg" 
    xmlns:xlink="http://www.w3.org/1999/xlink"
    xmlns:krita="http://krita.org/namespaces/svg/krita"
    xmlns:sodipodi="http://sodipodi.sourceforge.net/DTD/sodipodi-0.dtd"
    width="259.2pt"
    height="307.2pt"
    viewBox="0 0 259.2 307.2">
<defs/>
<path id="shape0" transform="matrix(0.9999999529 0 0 0.99999996026 11.74125808 18.507856661)" fill="none" stroke="#c73434" stroke-width="3.6303149606" stroke-linecap="square" stroke-linejoin="bevel" d="M55.3175 67.7361C50.964 60.7918 50.9926 51.4486 55.4896 42.6208C49.7949 39.9555 46.2841 35.0735 47.0841 30.3666C35.0239 20.4314 56.2786 19.3648 60.1386 10.7676C63.0597 4.26136 75.0128 8.57969 76.6905 11.4412C89.3365 -4.5533 111.173 -2.40472 117.859 9.43338C122.212 8.04988 132.521 8.25248 139.444 11.0396C147.83 14.4158 163.354 33.8895 146.151 33.048C151.673 42.0496 143.083 41.627 140.61 43.7607C142.067 49.8192 142.922 60.4135 139.499 67.531C188.483 76.7065 193.891 89.824 196.265 125.183C211.767 136.858 206.109 158.138 191.763 157.727C164.12 157.327 176.447 106.033 157.363 106.003C160.662 122.451 162.868 136.509 159.407 150.978C178.975 162.429 179.192 183.183 162.314 196.018C167.294 207.467 164.062 232.269 152.558 233.13C147.853 233.483 141.353 231.638 136.622 222.069C133.573 215.903 133.994 204.827 132.722 198.402C118.136 203.283 108.475 205.326 100.05 219.672C109.358 230.062 118.966 249.496 108.267 253.215C94.2151 258.865 71.695 257.071 68.1063 252.382C64.2114 245.199 72.4114 240.04 79.2858 239.116C66.7785 229.525 64.7673 227.798 62.3407 218.325C58.7843 204.44 60.3709 196.287 61.6498 189.01C53.4846 178.044 37.9054 128.881 45.4721 111.509C20.4305 122.699 45.9081 167.581 11.6532 166.288C-5.39077 159.438 -0.920592 130.955 7.28113 126.439C9.91507 88.1282 22.5878 75.354 55.3175 67.7361Z"/>
</svg>
