<?xml version="1.0" standalone="no"?>
<!DOCTYPE svg PUBLIC "-//W3C//DTD SVG 20010904//EN" "http://www.w3.org/TR/2001/REC-SVG-20010904/DTD/svg10.dtd">
<!-- Created using Krita: http://krita.org -->
<svg xmlns="http://www.w3.org/2000/svg" 
    xmlns:xlink="http://www.w3.org/1999/xlink"
    xmlns:krita="http://krita.org/namespaces/svg/krita"
    xmlns:sodipodi="http://sodipodi.sourceforge.net/DTD/sodipodi-0.dtd"
    width="259.2pt"
    height="307.2pt"
    viewBox="0 0 259.2 307.2">
<defs/>
<path id="shape0" transform="matrix(0.9999999529 0 0 0.99999996026 22.565485456 11.342021221)" fill="none" stroke="#c73434" stroke-width="3.6303149606" stroke-linecap="square" stroke-linejoin="bevel" d="M56.5562 78.5636C52.2027 71.6193 48.4825 53.1825 52.9795 44.3547C46.4595 42.8461 43.5886 39.5765 44.1316 34.4921C32.1661 33.5429 45.7365 21.685 51.6266 14.3286C55.9683 8.90598 69.6741 9.03184 71.3518 11.8934C83.9978 -4.10115 105.638 -3.11051 115.903 9.77473C120.256 8.39123 128.258 7.87641 135.181 10.6636C143.568 14.0397 153.818 34.8587 139.335 34.0172C144.857 43.0189 137.37 42.9394 134.897 45.0731C139.615 53.9808 138.28 67.105 128.863 74.259C170.459 85.2262 198.784 98.9041 193.752 137.121C206.237 153.229 194.496 173.058 183.261 171.49C154.286 170.873 169.233 117.922 145.604 112.681C151.203 130.517 159.063 172.363 145.834 192.763C156.446 208.427 154.891 235.06 141.329 242.636C146.308 254.085 138.682 261.813 130.898 260.9C124.674 260.17 116.119 255.58 111.898 247.615C108.625 241.439 112.285 229.942 116.925 216.687C106.724 219.707 107.577 218.021 89.4677 226.902C98.2309 238.033 108.295 253.701 97.5568 259.599C88.0101 264.573 73.0625 266.207 57.9087 259.842C54.3414 252.749 60.2022 248.814 68.4473 245.82C56.6492 241.1 50.5051 228.04 49.193 220.875C47.5321 211.805 49.5467 203.453 50.8256 196.176C42.6604 185.21 27.9791 135.569 35.5458 118.197C20.1908 137.35 47.6464 183.564 12.8984 180.806C-0.583527 180.195 -2.96074 157.378 3.27928 147.419C-1.46319 108.308 20.5561 88.2373 56.5562 78.5636Z"/>
</svg>
