<?xml version="1.0" standalone="no"?>
<!DOCTYPE svg PUBLIC "-//W3C//DTD SVG 20010904//EN" "http://www.w3.org/TR/2001/REC-SVG-20010904/DTD/svg10.dtd">
<!-- Created using Krita: http://krita.org -->
<svg xmlns="http://www.w3.org/2000/svg" 
    xmlns:xlink="http://www.w3.org/1999/xlink"
    xmlns:krita="http://krita.org/namespaces/svg/krita"
    xmlns:sodipodi="http://sodipodi.sourceforge.net/DTD/sodipodi-0.dtd"
    width="259.2pt"
    height="307.2pt"
    viewBox="0 0 259.2 307.2">
<defs/>
<path id="shape0" transform="matrix(0.9999999529 0 0 0.99999996026 29.611053566 19.481794862)" fill="none" stroke="#c73434" stroke-width="3.6303149606" stroke-linecap="square" stroke-linejoin="bevel" d="M62.1768 68.8722C57.8233 61.9279 58.536 51.0651 63.033 42.2373C57.3383 39.572 55.5362 36.5939 56.3362 31.887C33.7403 25.4623 62.2386 6.14665 70.5604 4.63513C77.5775 3.36057 85.5692 7.48917 87.2469 10.3507C99.8929 -5.64382 119.778 -1.16051 126.464 10.6776C130.817 9.29409 134.274 6.94187 141.616 8.28154C150.535 9.90891 170.134 31.4148 152.931 30.5733C158.454 39.5749 151.798 41.3859 149.325 43.5196C150.782 49.5781 151.028 63.0156 147.605 70.1331C191.174 77.8502 196.234 104.359 200.042 130.131C214.789 142.716 203.515 163.044 192.067 164.904C164.792 157.176 176.743 118.365 156.292 110.24C166.399 144.823 156.858 171.09 143.667 191.832C142.927 216.496 139.3 225.436 123.388 243.388C132.095 241.935 142.525 253.813 131.392 257.895C125.567 260.031 89.3813 260.62 86.7575 245.812C86.4268 238.557 102.572 226.165 102.538 222.344C102.466 214.297 86.3183 200.373 70.3404 200.521C70.023 213.085 66.6323 225.409 63.1318 228.917C56.6937 235.37 46.4061 231.638 44.9478 229.353C40.0327 221.652 38.4144 211.736 40.0929 199.607C32.3353 188.28 29.5862 182.993 30.1606 175.841C31.8165 162.639 44.0635 156.23 44.0902 153.086C44.129 148.506 40.3375 126.819 47.9042 109.447C27.7131 125.482 34.2223 159.541 14.9074 159.492C-9.89819 153.706 2.76855 130.451 7.05538 126.777C4.4941 80.2549 29.0492 68.7909 62.1768 68.8722Z"/>
</svg>
